<?xml version="1.0" encoding="utf-8" ?>
<svg xmlns="http://www.w3.org/2000/svg" xmlns:xlink="http://www.w3.org/1999/xlink" width="1024" height="1024">
	<path fill="#EBF2FA" transform="scale(2 2)" d="M246.241 104.258C338.157 102.672 421.064 149.048 462.718 232.77C466.457 240.285 470.172 247.948 472.925 255.887C456.023 300.505 429.136 335.446 390.267 362.844C350.849 390.63 313.631 401.323 265.943 404.467C257.431 404.475 248.865 404.701 240.368 404.132C152.854 398.271 69.0393 339.126 39.1256 255.887C40.0789 252.373 41.8127 248.977 43.2337 245.624C75.0899 170.448 148.353 114.509 229.781 105.582C235.251 104.982 240.775 104.946 246.241 104.258ZM261.117 352.102Q263.487 351.974 265.848 351.73Q268.209 351.486 270.556 351.127Q272.902 350.768 275.228 350.293Q277.554 349.819 279.853 349.232Q282.153 348.644 284.421 347.944Q286.69 347.245 288.921 346.434Q291.152 345.624 293.34 344.706Q295.529 343.787 297.67 342.762Q299.811 341.737 301.899 340.609Q303.987 339.48 306.018 338.25Q308.048 337.02 310.015 335.692Q311.983 334.365 313.883 332.942Q315.783 331.519 317.611 330.005Q319.439 328.49 321.19 326.888Q322.941 325.286 324.612 323.6Q326.283 321.914 327.869 320.148Q329.455 318.382 330.952 316.54Q332.45 314.698 333.855 312.785Q335.26 310.872 336.57 308.893Q337.88 306.913 339.091 304.872Q340.302 302.83 341.411 300.732Q342.521 298.633 343.526 296.483Q344.531 294.333 345.43 292.136Q346.328 289.939 347.118 287.7Q347.907 285.462 348.586 283.187Q349.265 280.913 349.832 278.608Q350.398 276.303 350.851 273.973Q351.304 271.643 351.641 269.293Q351.979 266.944 352.202 264.58Q352.424 262.217 352.53 259.846Q352.636 257.475 352.625 255.101Q352.615 252.727 352.488 250.357Q352.361 247.987 352.118 245.626Q351.875 243.264 351.517 240.918Q351.158 238.571 350.685 236.245Q350.212 233.919 349.625 231.619Q349.038 229.319 348.339 227.051Q347.64 224.783 346.831 222.551Q346.022 220.32 345.104 218.131Q344.186 215.941 343.162 213.8Q342.138 211.659 341.01 209.57Q339.882 207.482 338.653 205.451Q337.424 203.42 336.097 201.452Q334.77 199.484 333.348 197.584Q331.926 195.683 330.412 193.855Q328.898 192.026 327.297 190.274Q325.696 188.522 324.01 186.851Q322.325 185.179 320.559 183.593Q318.794 182.006 316.952 180.508Q315.111 179.01 313.199 177.604Q311.286 176.198 309.307 174.887Q307.328 173.577 305.287 172.365Q303.246 171.153 301.148 170.043Q299.05 168.932 296.9 167.926Q294.75 166.92 292.553 166.021Q290.357 165.122 288.119 164.331Q285.88 163.541 283.606 162.861Q281.332 162.181 279.027 161.614Q276.722 161.047 274.392 160.593Q272.062 160.139 269.713 159.801Q267.364 159.462 265 159.239Q262.637 159.016 260.266 158.909Q257.895 158.802 255.521 158.811Q253.147 158.821 250.777 158.947Q248.406 159.073 246.043 159.315Q243.681 159.558 241.333 159.916Q238.985 160.273 236.658 160.746Q234.331 161.219 232.029 161.805Q229.728 162.392 227.458 163.09Q225.189 163.789 222.956 164.598Q220.723 165.407 218.533 166.325Q216.343 167.243 214.2 168.267Q212.057 169.291 209.968 170.419Q207.878 171.547 205.846 172.777Q203.814 174.006 201.845 175.333Q199.876 176.661 197.974 178.084Q196.073 179.506 194.243 181.02Q192.414 182.535 190.661 184.137Q188.908 185.739 187.236 187.425Q185.563 189.111 183.976 190.878Q182.389 192.644 180.89 194.486Q179.391 196.328 177.984 198.242Q176.578 200.155 175.267 202.135Q173.956 204.115 172.743 206.157Q171.531 208.199 170.421 210.299Q169.31 212.398 168.304 214.549Q167.298 216.7 166.398 218.898Q165.499 221.096 164.708 223.335Q163.918 225.575 163.238 227.85Q162.559 230.126 161.992 232.432Q161.425 234.738 160.971 237.069Q160.518 239.4 160.18 241.751Q159.842 244.101 159.619 246.466Q159.397 248.83 159.29 251.203Q159.184 253.575 159.195 255.95Q159.205 258.325 159.332 260.696Q159.459 263.067 159.702 265.43Q159.945 267.792 160.304 270.14Q160.663 272.487 161.137 274.814Q161.61 277.142 162.197 279.443Q162.785 281.744 163.484 284.013Q164.184 286.283 164.994 288.515Q165.804 290.747 166.722 292.937Q167.641 295.127 168.666 297.27Q169.691 299.412 170.82 301.501Q171.949 303.591 173.179 305.622Q174.409 307.654 175.737 309.622Q177.066 311.591 178.489 313.492Q179.912 315.393 181.427 317.222Q182.942 319.051 184.545 320.803Q186.148 322.555 187.835 324.227Q189.522 325.898 191.289 327.485Q193.055 329.072 194.898 330.57Q196.741 332.068 198.655 333.474Q200.569 334.88 202.549 336.19Q204.53 337.5 206.573 338.712Q208.615 339.923 210.715 341.033Q212.815 342.143 214.966 343.148Q217.118 344.154 219.316 345.052Q221.514 345.951 223.754 346.74Q225.994 347.53 228.269 348.208Q230.545 348.887 232.852 349.453Q235.158 350.02 237.489 350.472Q239.821 350.924 242.171 351.262Q244.522 351.599 246.887 351.82Q249.251 352.042 251.624 352.147Q253.996 352.253 256.371 352.241Q258.746 352.23 261.117 352.102Z"/>
	<path fill="#064789" transform="scale(2 2)" d="M250.324 138.122Q253.217 137.982 256.113 137.984Q259.01 137.987 261.903 138.131Q264.795 138.276 267.678 138.562Q270.56 138.848 273.424 139.276Q276.289 139.703 279.129 140.27Q281.97 140.838 284.779 141.544Q287.588 142.25 290.358 143.093Q293.129 143.937 295.856 144.915Q298.582 145.893 301.257 147.004Q303.932 148.114 306.549 149.355Q309.166 150.596 311.719 151.964Q314.272 153.331 316.755 154.823Q319.238 156.314 321.645 157.925Q324.052 159.537 326.376 161.264Q328.701 162.992 330.938 164.832Q333.176 166.671 335.32 168.618Q337.464 170.566 339.51 172.616Q341.556 174.666 343.499 176.814Q345.442 178.962 347.277 181.203Q349.112 183.443 350.835 185.772Q352.558 188.1 354.165 190.51Q355.772 192.92 357.258 195.405Q358.744 197.891 360.107 200.447Q361.47 203.003 362.705 205.623Q363.941 208.242 365.046 210.919Q366.152 213.596 367.125 216.325Q368.097 219.053 368.935 221.825Q369.773 224.598 370.473 227.408Q371.174 230.219 371.736 233.06Q372.298 235.901 372.719 238.767Q373.141 241.632 373.422 244.515Q373.702 247.398 373.841 250.291Q373.98 253.184 373.976 256.081Q373.973 258.977 373.827 261.87Q373.682 264.762 373.394 267.644Q373.107 270.527 372.678 273.391Q372.25 276.256 371.681 279.096Q371.113 281.936 370.405 284.744Q369.698 287.553 368.854 290.324Q368.01 293.094 367.03 295.82Q366.051 298.546 364.939 301.22Q363.827 303.895 362.586 306.512Q361.344 309.128 359.975 311.681Q358.607 314.234 357.114 316.716Q355.622 319.198 354.009 321.604Q352.397 324.011 350.669 326.335Q348.94 328.659 347.1 330.895Q345.259 333.132 343.311 335.275Q341.363 337.418 339.312 339.464Q337.261 341.509 335.112 343.451Q332.964 345.393 330.722 347.227Q328.481 349.062 326.152 350.784Q323.823 352.506 321.412 354.112Q319.002 355.717 316.515 357.203Q314.029 358.688 311.472 360.05Q308.916 361.411 306.296 362.646Q303.676 363.88 300.998 364.985Q298.321 366.089 295.592 367.061Q292.864 368.033 290.091 368.869Q287.318 369.706 284.507 370.405Q281.696 371.105 278.855 371.666Q276.013 372.226 273.148 372.647Q270.282 373.068 267.399 373.347Q264.516 373.626 261.623 373.764Q258.731 373.902 255.836 373.897Q252.941 373.892 250.05 373.746Q247.159 373.599 244.278 373.311Q241.398 373.023 238.535 372.594Q235.672 372.165 232.834 371.596Q229.995 371.027 227.188 370.319Q224.381 369.611 221.612 368.767Q218.843 367.922 216.118 366.943Q213.394 365.964 210.721 364.852Q208.048 363.74 205.433 362.499Q202.818 361.257 200.267 359.889Q197.716 358.521 195.235 357.029Q192.754 355.537 190.349 353.925Q187.944 352.314 185.621 350.586Q183.298 348.858 181.063 347.018Q178.828 345.179 176.686 343.232Q174.543 341.285 172.499 339.235Q170.455 337.185 168.514 335.037Q166.572 332.89 164.739 330.649Q162.905 328.409 161.184 326.082Q159.462 323.754 157.857 321.345Q156.252 318.936 154.767 316.451Q153.282 313.966 151.92 311.411Q150.559 308.856 149.325 306.238Q148.09 303.619 146.986 300.943Q145.881 298.267 144.909 295.54Q143.938 292.813 143.101 290.042Q142.264 287.271 141.564 284.462Q140.864 281.652 140.302 278.812Q139.741 275.973 139.32 273.108Q138.898 270.244 138.618 267.363Q138.338 264.482 138.199 261.59Q138.06 258.698 138.064 255.803Q138.067 252.909 138.213 250.017Q138.358 247.126 138.645 244.245Q138.932 241.365 139.36 238.502Q139.788 235.638 140.356 232.8Q140.924 229.961 141.63 227.154Q142.337 224.346 143.18 221.577Q144.024 218.808 145.002 216.083Q145.98 213.358 147.091 210.685Q148.202 208.012 149.442 205.396Q150.683 202.78 152.05 200.228Q153.417 197.677 154.908 195.195Q156.399 192.714 158.01 190.308Q159.62 187.903 161.347 185.579Q163.074 183.256 164.913 181.02Q166.752 178.784 168.698 176.641Q170.644 174.498 172.693 172.453Q174.742 170.408 176.889 168.466Q179.036 166.524 181.275 164.689Q183.515 162.855 185.842 161.132Q188.168 159.41 190.577 157.804Q192.986 156.198 195.47 154.712Q197.954 153.226 200.509 151.863Q203.063 150.501 205.681 149.265Q208.299 148.03 210.975 146.924Q213.65 145.819 216.377 144.846Q219.103 143.873 221.874 143.035Q224.645 142.197 227.454 141.496Q230.263 140.795 233.102 140.232Q235.942 139.67 238.806 139.247Q241.67 138.825 244.551 138.543Q247.432 138.262 250.324 138.122ZM261.117 352.102Q263.487 351.974 265.848 351.73Q268.209 351.486 270.556 351.127Q272.902 350.768 275.228 350.293Q277.554 349.819 279.853 349.232Q282.153 348.644 284.421 347.944Q286.69 347.245 288.921 346.434Q291.152 345.624 293.34 344.706Q295.529 343.787 297.67 342.762Q299.811 341.737 301.899 340.609Q303.987 339.48 306.018 338.25Q308.048 337.02 310.015 335.692Q311.983 334.365 313.883 332.942Q315.783 331.519 317.611 330.005Q319.439 328.49 321.19 326.888Q322.941 325.286 324.612 323.6Q326.283 321.914 327.869 320.148Q329.455 318.382 330.952 316.54Q332.45 314.698 333.855 312.785Q335.26 310.872 336.57 308.893Q337.88 306.913 339.091 304.872Q340.302 302.83 341.411 300.732Q342.521 298.633 343.526 296.483Q344.531 294.333 345.43 292.136Q346.328 289.939 347.118 287.7Q347.907 285.462 348.586 283.187Q349.265 280.913 349.832 278.608Q350.398 276.303 350.851 273.973Q351.304 271.643 351.641 269.293Q351.979 266.944 352.202 264.58Q352.424 262.217 352.53 259.846Q352.636 257.475 352.625 255.101Q352.615 252.727 352.488 250.357Q352.361 247.987 352.118 245.626Q351.875 243.264 351.517 240.918Q351.158 238.571 350.685 236.245Q350.212 233.919 349.625 231.619Q349.038 229.319 348.339 227.051Q347.64 224.783 346.831 222.551Q346.022 220.32 345.104 218.131Q344.186 215.941 343.162 213.8Q342.138 211.659 341.01 209.57Q339.882 207.482 338.653 205.451Q337.424 203.42 336.097 201.452Q334.77 199.484 333.348 197.584Q331.926 195.683 330.412 193.855Q328.898 192.026 327.297 190.274Q325.696 188.522 324.01 186.851Q322.325 185.179 320.559 183.593Q318.794 182.006 316.952 180.508Q315.111 179.01 313.199 177.604Q311.286 176.198 309.307 174.887Q307.328 173.577 305.287 172.365Q303.246 171.153 301.148 170.043Q299.05 168.932 296.9 167.926Q294.75 166.92 292.553 166.021Q290.357 165.122 288.119 164.331Q285.88 163.541 283.606 162.861Q281.332 162.181 279.027 161.614Q276.722 161.047 274.392 160.593Q272.062 160.139 269.713 159.801Q267.364 159.462 265 159.239Q262.637 159.016 260.266 158.909Q257.895 158.802 255.521 158.811Q253.147 158.821 250.777 158.947Q248.406 159.073 246.043 159.315Q243.681 159.558 241.333 159.916Q238.985 160.273 236.658 160.746Q234.331 161.219 232.029 161.805Q229.728 162.392 227.458 163.09Q225.189 163.789 222.956 164.598Q220.723 165.407 218.533 166.325Q216.343 167.243 214.2 168.267Q212.057 169.291 209.968 170.419Q207.878 171.547 205.846 172.777Q203.814 174.006 201.845 175.333Q199.876 176.661 197.974 178.084Q196.073 179.506 194.243 181.02Q192.414 182.535 190.661 184.137Q188.908 185.739 187.236 187.425Q185.563 189.111 183.976 190.878Q182.389 192.644 180.89 194.486Q179.391 196.328 177.984 198.242Q176.578 200.155 175.267 202.135Q173.956 204.115 172.743 206.157Q171.531 208.199 170.421 210.299Q169.31 212.398 168.304 214.549Q167.298 216.7 166.398 218.898Q165.499 221.096 164.708 223.335Q163.918 225.575 163.238 227.85Q162.559 230.126 161.992 232.432Q161.425 234.738 160.971 237.069Q160.518 239.4 160.18 241.751Q159.842 244.101 159.619 246.466Q159.397 248.83 159.29 251.203Q159.184 253.575 159.195 255.95Q159.205 258.325 159.332 260.696Q159.459 263.067 159.702 265.43Q159.945 267.792 160.304 270.14Q160.663 272.487 161.137 274.814Q161.61 277.142 162.197 279.443Q162.785 281.744 163.484 284.013Q164.184 286.283 164.994 288.515Q165.804 290.747 166.722 292.937Q167.641 295.127 168.666 297.27Q169.691 299.412 170.82 301.501Q171.949 303.591 173.179 305.622Q174.409 307.654 175.737 309.622Q177.066 311.591 178.489 313.492Q179.912 315.393 181.427 317.222Q182.942 319.051 184.545 320.803Q186.148 322.555 187.835 324.227Q189.522 325.898 191.289 327.485Q193.055 329.072 194.898 330.57Q196.741 332.068 198.655 333.474Q200.569 334.88 202.549 336.19Q204.53 337.5 206.573 338.712Q208.615 339.923 210.715 341.033Q212.815 342.143 214.966 343.148Q217.118 344.154 219.316 345.052Q221.514 345.951 223.754 346.74Q225.994 347.53 228.269 348.208Q230.545 348.887 232.852 349.453Q235.158 350.02 237.489 350.472Q239.821 350.924 242.171 351.262Q244.522 351.599 246.887 351.82Q249.251 352.042 251.624 352.147Q253.996 352.253 256.371 352.241Q258.746 352.23 261.117 352.102Z"/>
	<path fill="#427AA1" transform="scale(2 2)" d="M251.809 184.688Q253.551 184.577 255.296 184.552Q257.04 184.527 258.785 184.588Q260.529 184.648 262.268 184.794Q264.007 184.94 265.736 185.172Q267.466 185.403 269.182 185.719Q270.899 186.034 272.597 186.434Q274.296 186.833 275.973 187.316Q277.65 187.798 279.302 188.362Q280.953 188.926 282.575 189.571Q284.197 190.215 285.785 190.939Q287.373 191.662 288.924 192.462Q290.475 193.262 291.984 194.138Q293.494 195.013 294.959 195.961Q296.424 196.91 297.841 197.929Q299.257 198.948 300.622 200.035Q301.987 201.123 303.297 202.276Q304.607 203.429 305.859 204.645Q307.111 205.861 308.301 207.136Q309.492 208.412 310.619 209.745Q311.745 211.078 312.805 212.464Q313.865 213.85 314.856 215.287Q315.846 216.724 316.765 218.207Q317.684 219.691 318.529 221.218Q319.374 222.744 320.144 224.311Q320.913 225.877 321.604 227.48Q322.296 229.082 322.908 230.716Q323.519 232.351 324.051 234.013Q324.582 235.675 325.03 237.362Q325.479 239.048 325.845 240.755Q326.211 242.461 326.492 244.183Q326.773 245.905 326.97 247.639Q327.167 249.373 327.278 251.115Q327.389 252.857 327.415 254.602Q327.441 256.346 327.381 258.09Q327.321 259.835 327.176 261.574Q327.03 263.313 326.8 265.042Q326.569 266.772 326.254 268.489Q325.939 270.205 325.54 271.904Q325.141 273.603 324.66 275.28Q324.178 276.958 323.614 278.609Q323.051 280.261 322.407 281.883Q321.763 283.505 321.041 285.093Q320.318 286.682 319.519 288.233Q318.719 289.784 317.844 291.294Q316.969 292.804 316.022 294.269Q315.074 295.735 314.055 297.152Q313.037 298.569 311.95 299.934Q310.863 301.299 309.711 302.61Q308.558 303.92 307.343 305.173Q306.127 306.425 304.852 307.616Q303.577 308.807 302.244 309.934Q300.912 311.062 299.526 312.122Q298.14 313.182 296.704 314.174Q295.268 315.165 293.784 316.084Q292.301 317.004 290.775 317.85Q289.248 318.695 287.682 319.465Q286.116 320.235 284.514 320.927Q282.912 321.619 281.278 322.231Q279.644 322.844 277.982 323.376Q276.32 323.908 274.633 324.357Q272.947 324.807 271.241 325.173Q269.535 325.539 267.812 325.821Q266.09 326.103 264.356 326.301Q262.623 326.498 260.881 326.61Q259.139 326.722 257.393 326.749Q255.647 326.775 253.902 326.716Q252.157 326.656 250.417 326.512Q248.677 326.367 246.946 326.137Q245.216 325.907 243.498 325.592Q241.781 325.277 240.081 324.878Q238.381 324.48 236.703 323.998Q235.024 323.516 233.372 322.953Q231.719 322.39 230.096 321.746Q228.473 321.102 226.884 320.379Q225.294 319.657 223.742 318.857Q222.19 318.057 220.68 317.182Q219.169 316.307 217.703 315.359Q216.236 314.411 214.819 313.392Q213.401 312.373 212.035 311.285Q210.669 310.198 209.357 309.045Q208.046 307.892 206.793 306.676Q205.541 305.46 204.349 304.184Q203.157 302.908 202.029 301.575Q200.902 300.242 199.841 298.855Q198.78 297.468 197.789 296.031Q196.797 294.594 195.877 293.11Q194.957 291.626 194.111 290.098Q193.266 288.571 192.496 287.004Q191.726 285.437 191.034 283.834Q190.342 282.231 189.729 280.596Q189.117 278.961 188.585 277.297Q188.054 275.634 187.604 273.947Q187.155 272.26 186.789 270.553Q186.423 268.845 186.142 267.122Q185.86 265.399 185.663 263.664Q185.466 261.929 185.355 260.187Q185.244 258.445 185.218 256.699Q185.192 254.953 185.252 253.208Q185.312 251.463 185.458 249.723Q185.603 247.983 185.834 246.252Q186.065 244.522 186.38 242.805Q186.696 241.087 187.095 239.387Q187.494 237.688 187.977 236.01Q188.459 234.332 189.023 232.679Q189.587 231.027 190.232 229.404Q190.876 227.781 191.6 226.192Q192.323 224.603 193.123 223.052Q193.924 221.5 194.8 219.989Q195.675 218.479 196.624 217.013Q197.573 215.547 198.592 214.13Q199.612 212.712 200.7 211.347Q201.788 209.981 202.941 208.671Q204.095 207.36 205.311 206.107Q206.528 204.855 207.804 203.664Q209.081 202.473 210.414 201.346Q211.748 200.218 213.135 199.158Q214.522 198.098 215.96 197.107Q217.397 196.116 218.882 195.197Q220.366 194.277 221.894 193.432Q223.422 192.587 224.989 191.818Q226.557 191.049 228.16 190.357Q229.763 189.666 231.399 189.054Q233.034 188.442 234.697 187.911Q236.361 187.38 238.048 186.932Q239.735 186.483 241.443 186.118Q243.15 185.753 244.873 185.472Q246.597 185.191 248.332 184.995Q250.067 184.799 251.809 184.688Z"/>
	<path fill="#174976" transform="scale(2 2)" d="M216.188 242.417Q215.865 242.076 215.558 241.72Q215.252 241.364 214.963 240.993Q214.674 240.623 214.403 240.239Q214.133 239.855 213.881 239.458Q213.629 239.062 213.396 238.653Q213.163 238.245 212.95 237.826Q212.738 237.407 212.545 236.979Q212.353 236.55 212.181 236.113Q212.01 235.675 211.859 235.23Q211.709 234.785 211.58 234.333Q211.451 233.881 211.344 233.424Q211.237 232.966 211.152 232.504Q211.068 232.042 211.005 231.576Q210.942 231.111 210.902 230.643Q210.862 230.174 210.845 229.705Q210.827 229.235 210.832 228.766Q210.837 228.296 210.865 227.827Q210.892 227.358 210.942 226.891Q210.993 226.423 211.065 225.959Q211.138 225.495 211.232 225.035Q211.327 224.575 211.444 224.119Q211.56 223.664 211.699 223.215Q211.837 222.766 211.997 222.324Q212.157 221.883 212.338 221.449Q212.519 221.015 212.721 220.591Q212.922 220.167 213.144 219.752Q213.366 219.338 213.607 218.935Q213.848 218.532 214.109 218.141Q214.369 217.75 214.648 217.372Q214.927 216.994 215.224 216.629Q215.521 216.265 215.835 215.916Q216.149 215.566 216.479 215.232Q216.809 214.898 217.155 214.58Q217.502 214.262 217.862 213.962Q218.223 213.661 218.598 213.378Q218.973 213.094 219.361 212.83Q219.75 212.565 220.15 212.319Q220.55 212.073 220.962 211.847Q221.374 211.621 221.796 211.415Q222.218 211.208 222.65 211.023Q223.081 210.837 223.521 210.672Q223.961 210.507 224.409 210.364Q224.856 210.22 225.31 210.099Q225.764 209.977 226.223 209.877Q226.682 209.777 227.146 209.7Q227.609 209.622 228.075 209.567Q228.542 209.512 229.011 209.479Q229.479 209.446 229.949 209.436Q230.419 209.425 230.889 209.438Q231.358 209.45 231.827 209.485Q232.295 209.52 232.762 209.577Q233.228 209.635 233.691 209.714Q234.154 209.794 234.613 209.896Q235.071 209.998 235.525 210.122Q235.978 210.246 236.425 210.391Q236.871 210.536 237.311 210.703Q237.75 210.87 238.181 211.058Q238.611 211.245 239.033 211.453Q239.454 211.662 239.865 211.89Q240.275 212.118 240.675 212.366Q241.074 212.613 241.461 212.88Q241.848 213.146 242.222 213.431Q242.595 213.716 242.955 214.018Q243.314 214.321 243.659 214.64C256.425 212.327 268.584 212.944 279.563 220.53C299.332 234.189 304.249 261.685 290.245 281.251C263.598 318.48 200.989 290.143 216.188 242.417Z"/>
	<path fill="#870DFF" transform="scale(2 2)" d="M216.188 242.417Q215.865 242.076 215.558 241.72Q215.252 241.364 214.963 240.993Q214.674 240.623 214.403 240.239Q214.133 239.855 213.881 239.458Q213.629 239.062 213.396 238.653Q213.163 238.245 212.95 237.826Q212.738 237.407 212.545 236.979Q212.353 236.55 212.181 236.113Q212.01 235.675 211.859 235.23Q211.709 234.785 211.58 234.333Q211.451 233.881 211.344 233.424Q211.237 232.966 211.152 232.504Q211.068 232.042 211.005 231.576Q210.942 231.111 210.902 230.643Q210.862 230.174 210.845 229.705Q210.827 229.235 210.832 228.766Q210.837 228.296 210.865 227.827Q210.892 227.358 210.942 226.891Q210.993 226.423 211.065 225.959Q211.138 225.495 211.232 225.035Q211.327 224.575 211.444 224.119Q211.56 223.664 211.699 223.215Q211.837 222.766 211.997 222.324Q212.157 221.883 212.338 221.449Q212.519 221.015 212.721 220.591Q212.922 220.167 213.144 219.752Q213.366 219.338 213.607 218.935Q213.848 218.532 214.109 218.141Q214.369 217.75 214.648 217.372Q214.927 216.994 215.224 216.629Q215.521 216.265 215.835 215.916Q216.149 215.566 216.479 215.232Q216.809 214.898 217.155 214.58Q217.502 214.262 217.862 213.962Q218.223 213.661 218.598 213.378Q218.973 213.094 219.361 212.83Q219.75 212.565 220.15 212.319Q220.55 212.073 220.962 211.847Q221.374 211.621 221.796 211.415Q222.218 211.208 222.65 211.023Q223.081 210.837 223.521 210.672Q223.961 210.507 224.409 210.364Q224.856 210.22 225.31 210.099Q225.764 209.977 226.223 209.877Q226.682 209.777 227.146 209.7Q227.609 209.622 228.075 209.567Q228.542 209.512 229.011 209.479Q229.479 209.446 229.949 209.436Q230.419 209.425 230.889 209.438Q231.358 209.45 231.827 209.485Q232.295 209.52 232.762 209.577Q233.228 209.635 233.691 209.714Q234.154 209.794 234.613 209.896Q235.071 209.998 235.525 210.122Q235.978 210.246 236.425 210.391Q236.871 210.536 237.311 210.703Q237.75 210.87 238.181 211.058Q238.611 211.245 239.033 211.453Q239.454 211.662 239.865 211.89Q240.275 212.118 240.675 212.366Q241.074 212.613 241.461 212.88Q241.848 213.146 242.222 213.431Q242.595 213.716 242.955 214.018Q243.314 214.321 243.659 214.64Q244.138 215.084 244.586 215.559Q245.035 216.034 245.45 216.537Q245.866 217.041 246.247 217.571Q246.628 218.102 246.973 218.656Q247.317 219.211 247.624 219.787Q247.931 220.364 248.199 220.959Q248.467 221.555 248.694 222.167Q248.922 222.779 249.108 223.405Q249.294 224.031 249.438 224.668Q249.582 225.305 249.683 225.95Q249.784 226.595 249.842 227.245Q249.9 227.896 249.914 228.549Q249.928 229.202 249.899 229.854Q249.869 230.506 249.797 231.155Q249.724 231.804 249.608 232.447Q249.492 233.09 249.333 233.723Q249.174 234.356 248.974 234.978Q248.773 235.599 248.531 236.206Q248.29 236.813 248.008 237.402Q247.727 237.991 247.406 238.56Q247.086 239.13 246.728 239.676Q246.371 240.222 245.978 240.744Q245.584 241.265 245.157 241.759Q244.73 242.253 244.271 242.717Q243.812 243.182 243.322 243.614Q242.833 244.047 242.316 244.446Q241.799 244.845 241.257 245.209Q240.714 245.572 240.149 245.899Q239.583 246.225 238.997 246.514Q238.411 246.802 237.807 247.05Q237.203 247.298 236.584 247.506Q235.965 247.713 235.333 247.879Q234.701 248.045 234.06 248.168Q233.419 248.291 232.771 248.371Q232.122 248.451 231.47 248.488Q230.818 248.524 230.166 248.517Q229.513 248.51 228.861 248.46Q228.21 248.409 227.564 248.315Q226.918 248.221 226.279 248.085Q225.641 247.948 225.013 247.769Q224.385 247.589 223.77 247.369Q223.156 247.148 222.557 246.887Q221.959 246.626 221.379 246.325Q220.799 246.024 220.241 245.686Q219.682 245.347 219.148 244.972Q218.613 244.597 218.105 244.187Q217.597 243.777 217.117 243.334Q216.637 242.891 216.188 242.417Z"/>
</svg>
